<svg xmlns="http://www.w3.org/2000/svg" viewBox="0 0 24 24" fill="currentColor"><path d="M19.14 12.94c.04-.31.06-.63.06-.94s-.02-.63-.06-.94l2.03-1.58a.5.5 0 0 0 .11-.65l-1.92-3.32a.5.5 0 0 0-.6-.22l-2.39.96a7.007 7.007 0 0 0-1.63-.94L14.9 2.5a.5.5 0 0 0-.5-.5h-3.8a.5.5 0 0 0-.5.5l-.38 2.59c-.57.22-1.11.52-1.62.88l-2.39-.96a.5.5 0 0 0-.6.22L2.72 8.88a.5.5 0 0 0 .11.65l2.03 1.58c-.04.31-.06.63-.06.94s.02.63.06.94L2.83 15.6a.5.5 0 0 0-.11.65l1.92 3.32c.15.26.46.36.72.26l2.39-.96c.51.36 1.05.66 1.62.88l.38 2.59c.05.27.27.47.5.47h3.8c.28 0 .5-.2.5-.47l.38-2.59c.57-.22 1.11-.52 1.63-.94l2.39.96c.26.11.57 0 .72-.26l1.92-3.32a.5.5 0 0 0-.11-.65l-2.03-1.58zM12 15.5A3.5 3.5 0 1 1 12 8.5a3.5 3.5 0 0 1 0 7z"/></svg>